<svg aria-hidden="true" style="position: absolute; width: 0; height: 0; overflow: hidden;" version="1.1" xmlns="http://www.w3.org/2000/svg" xmlns:xlink="http://www.w3.org/1999/xlink">
<defs>
<symbol id="icon-footer_social_facebook_icon" viewBox="0 0 16 32">
<path d="M14.15 15.979h-4.036v14.873h-6.115v-14.873h-2.908v-5.225h2.908v-3.384c0-2.419 1.142-6.207 6.17-6.207l4.529 0.019v5.075h-3.286c-0.538 0-1.298 0.272-1.298 1.426v3.075h4.57l-0.534 5.222z"></path>
</symbol>
<symbol id="icon-footer_social_github_icon" viewBox="0 0 32 32">
<path d="M16 0c-8.789 0-16 7.211-16 16 0 7.499 5.262 14.312 12.25 16v-5.293c-0.276 0.070-0.593 0.109-0.919 0.109-0.398 0-0.781-0.059-1.143-0.169l0.028 0.007c-0.946-0.278-1.714-0.909-2.285-1.869-0.363-0.613-1.008-1.28-1.68-1.23l-0.165-1.867c1.454-0.125 2.71 0.886 3.456 2.139 0.333 0.558 0.715 0.885 1.205 1.029 0.472 0.141 0.981 0.074 1.573-0.136 0.149-1.186 0.693-1.629 1.104-2.256-4.168-0.621-5.829-2.832-6.488-4.576-0.874-2.318-0.405-5.213 1.139-7.043 0.030-0.035 0.085-0.128 0.064-0.192-0.709-2.141 0.154-3.91 0.186-4.098 0.818 0.24 0.95-0.243 3.552 1.336l0.448 0.27c0.189 0.112 0.128 0.048 0.317 0.032 1.003-0.282 2.157-0.452 3.349-0.469l0.010-0c1.136 0.014 2.272 0.176 3.403 0.483l0.146 0.016c-0.013-0.003 0.040-0.010 0.128-0.062 3.248-1.968 3.131-1.325 4.003-1.608 0.032 0.189 0.882 1.987 0.182 4.099-0.096 0.291 2.816 2.957 1.202 7.235-0.659 1.744-2.32 3.957-6.486 4.578 0.534 0.816 1.176 1.248 1.173 2.928v6.606c6.986-1.688 12.25-8.501 12.25-16 0-8.789-7.211-16-16-16z"></path>
</symbol>
<symbol id="icon-footer_social_telegram_icon" viewBox="0 0 44 32">
<path d="M17.351 21.056l-0.674 8.865c0.966 0 1.385-0.388 1.887-0.852l4.528-4.042 9.385 6.417c1.721 0.894 2.936 0.422 3.402-1.479l6.159-26.946c0.548-2.375-0.92-3.304-2.595-2.721l-36.213 12.941c-2.471 0.896-2.435 2.181-0.42 2.767l9.257 2.685 21.505-12.559c1.013-0.626 1.933-0.28 1.177 0.346l-17.399 14.578z"></path>
</symbol>
<symbol id="icon-hero_768_menu_close" viewBox="0 0 32 32">
<path stroke-linejoin="miter" stroke-linecap="butt" stroke-miterlimit="4" stroke-width="2" d="M2.521 2.001l26.97 28.010M2.001 29.49l28.010-26.97"></path>
</symbol>
<symbol id="icon-hero_768_menu_open" viewBox="0 0 46 32">
<path stroke-linejoin="miter" stroke-linecap="butt" stroke-miterlimit="4" stroke-width="2.2857" d="M0 2.295h45.714M0 16.010h45.714M0 29.724h45.714"></path>
</symbol>
<symbol id="icon-hero_ellipse30white" viewBox="0 0 32 32">
<path d="M32 16c0 8.837-7.163 16-16 16s-16-7.163-16-16c0-8.837 7.163-16 16-16s16 7.163 16 16z"></path>
</symbol>
<symbol id="icon-hero_ellipse538pink" viewBox="0 0 32 32">
<path d="M32 16c0 8.837-7.163 16-16 16s-16-7.163-16-16c0-8.837 7.163-16 16-16s16 7.163 16 16z"></path>
</symbol>
<symbol id="icon-reviews_ellipse_grey" viewBox="0 0 32 32">
<path d="M32.030 16.015c0 8.845-7.17 16.015-16.015 16.015s-16.015-7.17-16.015-16.015c0-8.845 7.17-16.015 16.015-16.015s16.015 7.17 16.015 16.015z"></path>
</symbol>
<symbol id="icon-reviews_ellipse_red" viewBox="0 0 32 32">
<path d="M32.068 16.034c0 8.855-7.179 16.034-16.034 16.034s-16.034-7.179-16.034-16.034c0-8.855 7.179-16.034 16.034-16.034s16.034 7.179 16.034 16.034z"></path>
</symbol>
<symbol id="icon-reviews_home" viewBox="0 0 35 32">
<path d="M34.261 15.628c0.257-0.279 0.414-0.654 0.414-1.065 0-0.475-0.21-0.901-0.543-1.19l-0.002-0.002-14.777-12.928c-0.318-0.269-0.732-0.432-1.185-0.432-0.467 0-0.893 0.174-1.218 0.46l0.002-0.002-14.825 13.592c-0.316 0.288-0.513 0.701-0.513 1.16 0 0.424 0.168 0.809 0.442 1.091l-0-0 0.373 0.387c0.613 0.64 1.611 0.72 2.224 0.171l1.107-0.992v14.526c0 0.894 0.72 1.614 1.614 1.614h5.775c0.891 0 1.614-0.72 1.614-1.614v-10.162h7.375v10.162c-0.013 0.891 0.624 1.614 1.515 1.614h6.124c0.891 0 1.611-0.72 1.611-1.614v-14.323l0.685 0.603c0.376 0.331 1.168 0.064 1.766-0.595l0.421-0.461z"></path>
</symbol>
<symbol id="icon-reviews_quotes" viewBox="0 0 43 32">
<path d="M32.019-0.003c1.928 0 3.75 0.52 5.465 1.561s3.108 2.537 4.179 4.489c1.029 1.952 1.543 4.25 1.543 6.896s-0.643 5.226-1.928 7.741c-0.429 0.911-1.2 2.081-2.316 3.513-1.157 1.431-2.228 2.667-3.214 3.708l-4.051 4.098-2.893-4.814c2.063-1.302 3.824-2.855 5.307-4.647l0.030-0.037c1.543-1.821 2.314-3.491 2.314-5.009 0-0.781-0.171-1.41-0.514-1.887-1.5 1.084-3.172 1.627-5.015 1.627-1.328 0-2.593-0.412-3.793-1.236-1.238-0.782-2.238-1.834-2.936-3.079l-0.022-0.043c-0.771-1.258-1.157-2.559-1.157-3.903 0-1.519 0.45-2.971 1.35-4.359 0.866-1.389 2.011-2.526 3.364-3.357l0.044-0.025c1.371-0.824 2.784-1.236 4.242-1.236zM8.937-0.003c1.928 0 3.75 0.52 5.465 1.561s3.108 2.536 4.179 4.489c1.029 1.952 1.543 4.25 1.543 6.896 0 1.864-0.236 3.534-0.707 5.009-0.472 1.518-1.286 3.101-2.444 4.749-1.115 1.561-2.164 2.862-3.15 3.903-0.986 1.084-2.7 2.884-5.144 5.399l-2.893-4.814c2.063-1.302 3.824-2.855 5.307-4.647l0.030-0.037c1.543-1.821 2.315-3.491 2.315-5.009 0-0.781-0.172-1.41-0.514-1.887-1.5 1.084-3.172 1.627-5.015 1.627-1.328 0-2.593-0.412-3.793-1.236-1.238-0.782-2.238-1.834-2.936-3.079l-0.022-0.043c-0.771-1.258-1.157-2.559-1.157-3.903 0-1.519 0.429-2.971 1.286-4.359 0.866-1.389 2.011-2.526 3.364-3.357l0.045-0.025c1.371-0.824 2.784-1.236 4.243-1.236z"></path>
</symbol>
<symbol id="icon-arrow-right2" viewBox="0 0 32 32">
<path d="M19.414 27.414l10-10c0.781-0.781 0.781-2.047 0-2.828l-10-10c-0.781-0.781-2.047-0.781-2.828 0s-0.781 2.047 0 2.828l6.586 6.586h-19.172c-1.105 0-2 0.895-2 2s0.895 2 2 2h19.172l-6.586 6.586c-0.39 0.39-0.586 0.902-0.586 1.414s0.195 1.024 0.586 1.414c0.781 0.781 2.047 0.781 2.828 0z"></path>
</symbol>
<symbol id="icon-arrow-right" viewBox="0 0 32 32">
<path d="M19.414 27.414l10-10c0.781-0.781 0.781-2.047 0-2.828l-10-10c-0.781-0.781-2.047-0.781-2.828 0s-0.781 2.047 0 2.828l6.586 6.586h-19.172c-1.105 0-2 0.895-2 2s0.895 2 2 2h19.172l-6.586 6.586c-0.39 0.39-0.586 0.902-0.586 1.414s0.195 1.024 0.586 1.414c0.781 0.781 2.047 0.781 2.828 0z"></path>
</symbol>
<symbol id="icon-close_24px" viewBox="0 0 32 32">
<path d="M31.439 3.166l-3.166-3.166-12.553 12.553-12.553-12.553-3.166 3.166 12.553 12.553-12.553 12.553 3.166 3.166 12.553-12.553 12.553 12.553 3.166-3.166-12.553-12.553 12.553-12.553z"></path>
</symbol>
<symbol id="icon-menu_24px" viewBox="0 0 48 32">
<path d="M0 5.333v-5.333h48v5.333h-48zM0 18.667h48v-5.333h-48v5.333zM0 32h48v-5.333h-48v5.333z"></path>
</symbol>
<symbol id="icon-next_arrow_icon_131519" viewBox="0 0 32 32">
<path d="M10.616 0.762l15.289 15.29-14.91 14.91-3.758-3.758 11.153-11.151-11.532-11.531z"></path>
</symbol>
<symbol id="icon-close" viewBox="0 0 11 11"><path d="M11 1.108L9.892 0 5.5 4.392 1.108 0 0 1.108 4.392 5.5 0 9.892 1.108 11 5.5 6.608 9.892 11 11 9.892 6.608 5.5 11 1.108z"/></symbol>
<symbol id="icon-personform" viewBox="0 0 18 18">
<path d="M9 9C10.6575 9 12 7.6575 12 6C12 4.3425 10.6575 3 9 3C7.3425 3 6 4.3425 6 6C6 7.6575 7.3425 9 9 9ZM9 10.5C6.9975 10.5 3 11.505 3 13.5V14.25C3 14.6625 3.3375 15 3.75 15H14.25C14.6625 15 15 14.6625 15 14.25V13.5C15 11.505 11.0025 10.5 9 10.5Z"/></symbol>
<symbol id="icon-phoneform" viewBox="0 0 18 18">
<path d="M13.996 11.1226L12.1579 10.9127C11.7164 10.862 11.2822 11.014 10.971 11.3252L9.63945 12.6568C7.59144 11.6147 5.91251 9.94296 4.87041 7.8877L6.20922 6.54888C6.5204 6.2377 6.67237 5.80349 6.62171 5.36205L6.41185 3.53836C6.325 2.80745 5.70988 2.25745 4.97173 2.25745H3.71976C2.902 2.25745 2.22175 2.93771 2.2724 3.75547C2.65595 9.93572 7.59868 14.8712 13.7717 15.2548C14.5894 15.3054 15.2697 14.6252 15.2697 13.8074V12.5555C15.2769 11.8245 14.7269 11.2094 13.996 11.1226Z"/></symbol>
<symbol id="icon-mailform" viewBox="0 0 18 18">
<path d="M15 3H3C2.175 3 1.5075 3.675 1.5075 4.5L1.5 13.5C1.5 14.325 2.175 15 3 15H15C15.825 15 16.5 14.325 16.5 13.5V4.5C16.5 3.675 15.825 3 15 3ZM14.7 6.1875L9.3975 9.5025C9.1575 9.6525 8.8425 9.6525 8.6025 9.5025L3.3 6.1875C3.1125 6.0675 3 5.865 3 5.6475C3 5.145 3.5475 4.845 3.975 5.1075L9 8.25L14.025 5.1075C14.4525 4.845 15 5.145 15 5.6475C15 5.865 14.8875 6.0675 14.7 6.1875Z"/></symbol>
<symbol id="icon-checkbox" viewBox="0 0 16 15">
<path d="M3.95703 7.75166L3.88825 7.68604L3.81923 7.75141L2.93123 8.59258L2.85486 8.66492L2.93097 8.73753L6.42671 12.0724L6.49574 12.1382L6.56476 12.0724L14.069 4.91352L14.1449 4.84116L14.069 4.76881L13.1873 3.92764L13.1183 3.86183L13.0493 3.92761L6.49577 10.1735L3.95703 7.75166Z"/></symbol>
</defs>
</svg>
